<?xml version="1.0" encoding="UTF-8" standalone="no"?>
<!-- Created with Inkscape (http://www.inkscape.org/) -->

<svg
   width="149.34029mm"
   height="36.079231mm"
   viewBox="0 0 149.34029 36.079231"
   version="1.1"
   id="svg274"
   inkscape:version="1.1.2 (b8e25be833, 2022-02-05)"
   sodipodi:docname="blapoo_dtextwhite.svg"
   inkscape:export-filename="C:\Users\Olmos\OneDrive\Documentos\Web Design Proyects\Blapoo\img\blapoo.png"
   inkscape:export-xdpi="96"
   inkscape:export-ydpi="96"
   xmlns:inkscape="http://www.inkscape.org/namespaces/inkscape"
   xmlns:sodipodi="http://sodipodi.sourceforge.net/DTD/sodipodi-0.dtd"
   xmlns:xlink="http://www.w3.org/1999/xlink"
   xmlns="http://www.w3.org/2000/svg"
   xmlns:svg="http://www.w3.org/2000/svg">
  <sodipodi:namedview
     id="namedview276"
     pagecolor="#ffffff"
     bordercolor="#666666"
     borderopacity="1.0"
     inkscape:pageshadow="2"
     inkscape:pageopacity="0.0"
     inkscape:pagecheckerboard="0"
     inkscape:document-units="mm"
     showgrid="false"
     inkscape:zoom="0.5"
     inkscape:cx="215"
     inkscape:cy="484"
     inkscape:window-width="1858"
     inkscape:window-height="1057"
     inkscape:window-x="-8"
     inkscape:window-y="-8"
     inkscape:window-maximized="1"
     inkscape:current-layer="layer1" />
  <defs
     id="defs271">
    <linearGradient
       inkscape:collect="always"
       xlink:href="#linearGradient8968"
       id="linearGradient12836"
       gradientUnits="userSpaceOnUse"
       x1="162"
       y1="564"
       x2="892"
       y2="-4.0000005" />
    <linearGradient
       inkscape:collect="always"
       id="linearGradient8968">
      <stop
         style="stop-color:#ff0066;stop-opacity:1"
         offset="0"
         id="stop8964" />
      <stop
         style="stop-color:#ffb380;stop-opacity:1"
         offset="1"
         id="stop8966" />
    </linearGradient>
    <linearGradient
       inkscape:collect="always"
       xlink:href="#linearGradient7039"
       id="linearGradient6611"
       x1="149.00558"
       y1="462.29941"
       x2="439.37546"
       y2="133.72296"
       gradientUnits="userSpaceOnUse" />
    <linearGradient
       inkscape:collect="always"
       id="linearGradient7039">
      <stop
         style="stop-color:#cc0066;stop-opacity:1;"
         offset="0"
         id="stop7035" />
      <stop
         style="stop-color:#cc0066;stop-opacity:0;"
         offset="1"
         id="stop7037" />
    </linearGradient>
    <linearGradient
       inkscape:collect="always"
       xlink:href="#linearGradient7039"
       id="linearGradient7041"
       x1="237.17363"
       y1="445.15652"
       x2="50.829445"
       y2="233.11011"
       gradientUnits="userSpaceOnUse" />
    <linearGradient
       inkscape:collect="always"
       xlink:href="#linearGradient6297"
       id="linearGradient6299"
       x1="203.0144"
       y1="514.16522"
       x2="883.99127"
       y2="-495.28049"
       gradientUnits="userSpaceOnUse" />
    <linearGradient
       inkscape:collect="always"
       id="linearGradient6297">
      <stop
         style="stop-color:#ff5050;stop-opacity:1;"
         offset="0"
         id="stop6293" />
      <stop
         style="stop-color:#ff5050;stop-opacity:0;"
         offset="1"
         id="stop6295" />
    </linearGradient>
    <linearGradient
       inkscape:collect="always"
       xlink:href="#linearGradient8685"
       id="linearGradient8687"
       x1="248.64433"
       y1="489.54614"
       x2="729.02466"
       y2="-435.66132"
       gradientUnits="userSpaceOnUse" />
    <linearGradient
       inkscape:collect="always"
       id="linearGradient8685">
      <stop
         style="stop-color:#ffd5d5;stop-opacity:1;"
         offset="0"
         id="stop8681" />
      <stop
         style="stop-color:#ffd5d5;stop-opacity:0;"
         offset="1"
         id="stop8683" />
    </linearGradient>
    <rect
       x="566.69305"
       y="1.6237624"
       width="959.64355"
       height="633.26733"
       id="rect2973" />
    <rect
       x="566.69305"
       y="1.6237624"
       width="959.64355"
       height="633.26733"
       id="rect2973-9" />
    <rect
       x="566.69305"
       y="1.6237624"
       width="959.64355"
       height="633.26733"
       id="rect2973-9-6" />
    <rect
       x="566.69305"
       y="1.6237624"
       width="959.64355"
       height="633.26733"
       id="rect2973-9-6-8" />
  </defs>
  <g
     inkscape:label="Capa 1"
     inkscape:groupmode="layer"
     id="layer1"
     style="display:inline"
     transform="translate(-0.11380686)">
    <g
       inkscape:label="Capa 1"
       id="layer1-2"
       transform="matrix(0.27108316,0,0,0.26803747,-0.25529157,-0.26705516)"
       style="fill:url(#linearGradient12836);fill-opacity:1"
       inkscape:export-filename="C:\Users\Olmos\OneDrive\Escritorio\blapoo 2.png"
       inkscape:export-xdpi="96"
       inkscape:export-ydpi="96">
      <path
         sodipodi:type="star"
         style="fill:#ff00ff;fill-opacity:1;stroke:none"
         id="path507-9"
         inkscape:flatsided="true"
         sodipodi:sides="3"
         sodipodi:cx="203.13496"
         sodipodi:cy="402.54935"
         sodipodi:r1="101.88515"
         sodipodi:r2="50.942577"
         sodipodi:arg1="-0.10626486"
         sodipodi:arg2="0.94093269"
         inkscape:rounded="0.18"
         inkscape:randomized="0"
         transform="matrix(0.26458333,0,0,0.26458333,-27.050725,-81.647482)"
         inkscape:transform-center-x="-4.6389184"
         inkscape:transform-center-y="1.3118108"
         inkscape:export-filename="C:\Users\Olmos\OneDrive\Escritorio\path507-9.png"
         inkscape:export-xdpi="96"
         inkscape:export-ydpi="96"
         d="m 304.4454,391.7429 c 3.36911,31.58547 -113.56862,116.82207 -142.607,103.94708 -29.03837,-12.87499 -44.38657,-156.76435 -18.71731,-175.47482 25.66926,-18.71047 157.95519,39.94227 161.32431,71.52774 z" />
      <path
         sodipodi:type="star"
         style="fill:#ff00ff;fill-opacity:1;stroke:none"
         id="path507-7-1"
         inkscape:flatsided="true"
         sodipodi:sides="3"
         sodipodi:cx="203.13496"
         sodipodi:cy="402.54935"
         sodipodi:r1="101.88515"
         sodipodi:r2="50.942577"
         sodipodi:arg1="-0.10626486"
         sodipodi:arg2="0.94093269"
         inkscape:rounded="0.18"
         inkscape:randomized="0"
         transform="matrix(-0.26445952,0,0,0.26458333,167.96156,-81.647058)"
         inkscape:transform-center-x="4.6367432"
         inkscape:transform-center-y="1.3118108"
         inkscape:export-filename="C:\Users\Olmos\OneDrive\Escritorio\path507-9.png"
         inkscape:export-xdpi="96"
         inkscape:export-ydpi="96"
         d="m 304.4454,391.7429 c 3.36911,31.58547 -113.56862,116.82207 -142.607,103.94708 -29.03837,-12.87499 -44.38657,-156.76435 -18.71731,-175.47482 25.66926,-18.71047 157.95519,39.94227 161.32431,71.52774 z" />
      <path
         sodipodi:type="star"
         style="fill:url(#linearGradient6611);fill-opacity:1;stroke:none"
         id="path507"
         inkscape:flatsided="true"
         sodipodi:sides="3"
         sodipodi:cx="203.13496"
         sodipodi:cy="402.54935"
         sodipodi:r1="101.88515"
         sodipodi:r2="50.942577"
         sodipodi:arg1="-0.10626486"
         sodipodi:arg2="0.94093269"
         inkscape:rounded="0.18"
         inkscape:randomized="0"
         transform="matrix(0.26458333,0,0,0.26458333,-27.050725,-81.647482)"
         inkscape:transform-center-x="-4.6389184"
         inkscape:transform-center-y="1.3118108"
         inkscape:export-filename="C:\Users\Olmos\OneDrive\Escritorio\path507-9.png"
         inkscape:export-xdpi="96"
         inkscape:export-ydpi="96"
         d="m 304.4454,391.7429 c 3.36911,31.58547 -113.56862,116.82207 -142.607,103.94708 -29.03837,-12.87499 -44.38657,-156.76435 -18.71731,-175.47482 25.66926,-18.71047 157.95519,39.94227 161.32431,71.52774 z" />
      <path
         sodipodi:type="star"
         style="fill:url(#linearGradient7041);fill-opacity:1;stroke:none"
         id="path507-7"
         inkscape:flatsided="true"
         sodipodi:sides="3"
         sodipodi:cx="203.13496"
         sodipodi:cy="402.54935"
         sodipodi:r1="101.88515"
         sodipodi:r2="50.942577"
         sodipodi:arg1="-0.10626486"
         sodipodi:arg2="0.94093269"
         inkscape:rounded="0.18"
         inkscape:randomized="0"
         transform="matrix(-0.26445952,0,0,0.26458333,167.96156,-81.647058)"
         inkscape:transform-center-x="4.6367432"
         inkscape:transform-center-y="1.3118108"
         inkscape:export-filename="C:\Users\Olmos\OneDrive\Escritorio\path507-9.png"
         inkscape:export-xdpi="96"
         inkscape:export-ydpi="96"
         d="m 304.4454,391.7429 c 3.36911,31.58547 -113.56862,116.82207 -142.607,103.94708 -29.03837,-12.87499 -44.38657,-156.76435 -18.71731,-175.47482 25.66926,-18.71047 157.95519,39.94227 161.32431,71.52774 z" />
      <path
         sodipodi:type="star"
         style="opacity:1;fill:#f9f9f9;fill-opacity:1;stroke:none"
         id="path399-3"
         inkscape:flatsided="true"
         sodipodi:sides="5"
         sodipodi:cx="314.73776"
         sodipodi:cy="389.0321"
         sodipodi:r1="207.21996"
         sodipodi:r2="167.64447"
         sodipodi:arg1="-2.22212"
         sodipodi:arg2="-1.5938015"
         inkscape:rounded="0.11"
         inkscape:randomized="0"
         transform="matrix(0.34715294,0.00659019,-0.00564973,0.2976123,-37.149952,-43.939711)"
         inkscape:transform-center-x="-0.13431613"
         inkscape:transform-center-y="4.132206"
         inkscape:export-filename="C:\Users\Olmos\OneDrive\Escritorio\path507-9.png"
         inkscape:export-xdpi="96"
         inkscape:export-ydpi="96"
         d="m 189.11281,224.2338 c 21.31053,-16.24491 221.50207,-20.85116 243.53721,-5.6036 22.03514,15.24756 88.27853,204.21763 80.58648,229.88604 -7.69206,25.66842 -166.94294,147.06459 -193.73203,147.68099 -26.7891,0.61639 -191.45494,-113.32671 -200.31946,-138.61418 -8.86451,-25.28746 48.61728,-217.10434 69.9278,-233.34925 z" />
      <path
         sodipodi:type="star"
         style="opacity:1;fill:url(#linearGradient6299);fill-opacity:1;stroke:none"
         id="path399"
         inkscape:flatsided="true"
         sodipodi:sides="5"
         sodipodi:cx="314.73776"
         sodipodi:cy="389.0321"
         sodipodi:r1="207.21996"
         sodipodi:r2="167.64447"
         sodipodi:arg1="-2.22212"
         sodipodi:arg2="-1.5938015"
         inkscape:rounded="0.11"
         inkscape:randomized="0"
         transform="matrix(0.34715294,0.00659019,-0.00564973,0.2976123,-37.149952,-43.939711)"
         inkscape:transform-center-x="-0.13431613"
         inkscape:transform-center-y="4.132206"
         inkscape:export-filename="C:\Users\Olmos\OneDrive\Escritorio\path507-9.png"
         inkscape:export-xdpi="96"
         inkscape:export-ydpi="96"
         d="m 189.11281,224.2338 c 21.31053,-16.24491 221.50207,-20.85116 243.53721,-5.6036 22.03514,15.24756 88.27853,204.21763 80.58648,229.88604 -7.69206,25.66842 -166.94294,147.06459 -193.73203,147.68099 -26.7891,0.61639 -191.45494,-113.32671 -200.31946,-138.61418 -8.86451,-25.28746 48.61728,-217.10434 69.9278,-233.34925 z" />
      <path
         sodipodi:type="star"
         style="opacity:1;fill:url(#linearGradient8687);fill-opacity:1;stroke:none"
         id="path399-6"
         inkscape:flatsided="true"
         sodipodi:sides="5"
         sodipodi:cx="314.73776"
         sodipodi:cy="389.0321"
         sodipodi:r1="207.21996"
         sodipodi:r2="167.64447"
         sodipodi:arg1="-2.22212"
         sodipodi:arg2="-1.5938015"
         inkscape:rounded="0.11"
         inkscape:randomized="0"
         transform="matrix(0.21857933,0.00342674,-0.00355727,0.15475105,2.501711,42.244508)"
         inkscape:transform-center-x="-0.084569757"
         inkscape:transform-center-y="2.1486494"
         inkscape:export-filename="C:\Users\Olmos\OneDrive\Escritorio\path507-9.png"
         inkscape:export-xdpi="96"
         inkscape:export-ydpi="96"
         d="m 189.11281,224.2338 c 21.31053,-16.24491 221.50207,-20.85116 243.53721,-5.6036 22.03514,15.24756 88.27853,204.21763 80.58648,229.88604 -7.69206,25.66842 -166.94294,147.06459 -193.73203,147.68099 -26.7891,0.61639 -191.45494,-113.32671 -200.31946,-138.61418 -8.86451,-25.28746 48.61728,-217.10434 69.9278,-233.34925 z" />
      <path
         sodipodi:type="star"
         style="fill:#280b0b;stroke:none;stroke-width:1.00157;stroke-miterlimit:4;stroke-dasharray:none;stroke-opacity:1"
         id="path4336"
         inkscape:flatsided="true"
         sodipodi:sides="3"
         sodipodi:cx="315.41318"
         sodipodi:cy="557.20746"
         sodipodi:r1="33.770149"
         sodipodi:r2="16.885075"
         sodipodi:arg1="1.5707963"
         sodipodi:arg2="2.6179939"
         inkscape:rounded="0.11"
         inkscape:randomized="0"
         transform="matrix(0.26458333,0,0,0.26458333,-13.288788,-67.335069)"
         inkscape:transform-center-x="1.0513773e-06"
         inkscape:transform-center-y="1.6808984"
         inkscape:export-filename="C:\Users\Olmos\OneDrive\Escritorio\path507-9.png"
         inkscape:export-xdpi="96"
         inkscape:export-ydpi="96"
         d="m 315.41318,590.97761 c -6.43408,0 -32.46285,-45.08315 -29.24581,-50.65523 3.21704,-5.57207 55.27458,-5.57207 58.49161,0 3.21704,5.57208 -22.81172,50.65523 -29.2458,50.65523 z" />
      <path
         style="fill:#000000;fill-opacity:1;stroke:none;stroke-width:0.302655px;stroke-linecap:butt;stroke-linejoin:miter;stroke-opacity:1"
         d="m 37.623074,64.039928 c 0,0 5.38676,-5.64709 9.323249,-5.04204 3.93649,0.60504 4.350856,1.81514 4.765222,3.42859 0.414366,1.61345 -8.494517,6.6555 -11.187908,5.84877 -2.69338,-0.80672 -3.522124,-1.61345 -2.900563,-4.23532 z"
         id="path4473"
         inkscape:export-filename="C:\Users\Olmos\OneDrive\Escritorio\path507-9.png"
         inkscape:export-xdpi="96"
         inkscape:export-ydpi="96" />
      <path
         style="fill:#000000;fill-opacity:1;stroke:none;stroke-width:0.301793px;stroke-linecap:butt;stroke-linejoin:miter;stroke-opacity:1"
         d="m 100.66014,64.039928 c 0,0 -5.356132,-5.64709 -9.270242,-5.04204 -3.91411,0.60504 -4.32612,1.81514 -4.73813,3.42859 -0.41202,1.61345 8.44623,6.6555 11.1243,5.84877 2.678072,-0.80672 3.502102,-1.61345 2.884072,-4.23532 z"
         id="path4473-0"
         inkscape:export-filename="C:\Users\Olmos\OneDrive\Escritorio\path507-9.png"
         inkscape:export-xdpi="96"
         inkscape:export-ydpi="96" />
      <path
         style="fill:#ffd5d5;stroke:none;stroke-width:0.264583px;stroke-linecap:butt;stroke-linejoin:miter;stroke-opacity:1"
         d="m 99.198598,39.006708 c 0,0 -9.51544,-2.56887 -11.05732,1.20316 -1.54186,3.77204 -0.96112,5.49943 1.21526,7.13405 2.17637,1.63462 23.666602,6.38923 23.995942,5.1693 0.32935,-1.21993 -8.44945,-10.39589 -14.153882,-13.50651 z"
         id="path5162"
         sodipodi:nodetypes="csssc"
         inkscape:export-filename="C:\Users\Olmos\OneDrive\Escritorio\path507-9.png"
         inkscape:export-xdpi="96"
         inkscape:export-ydpi="96" />
      <path
         style="fill:#ffd5d5;stroke:none;stroke-width:0.264583px;stroke-linecap:butt;stroke-linejoin:miter;stroke-opacity:1"
         d="m 41.650232,38.417228 c 0,0 9.51544,-1.4627 11.05732,2.48857 1.54186,3.95128 0.96112,5.61116 -1.21526,6.99277 -2.17637,1.38162 -23.6666,3.638 -23.99594,2.37978 -0.329348,-1.25821 8.44945,-9.41364 14.15388,-11.86112 z"
         id="path5162-4"
         sodipodi:nodetypes="csssc"
         inkscape:export-filename="C:\Users\Olmos\OneDrive\Escritorio\path507-9.png"
         inkscape:export-xdpi="96"
         inkscape:export-ydpi="96" />
      <path
         style="fill:#ff7f2a;stroke:none;stroke-width:0.50349px;stroke-linecap:butt;stroke-linejoin:miter;stroke-opacity:1"
         d="m 70.099311,111.17826 c -49.877256,14.76879 -65.772205,3.37571 -49.877256,14.76879 15.89495,11.39311 49.877256,-14.76879 49.877256,-14.76879 z"
         id="path8866"
         inkscape:export-filename="C:\Users\Olmos\OneDrive\Escritorio\path507-9.png"
         inkscape:export-xdpi="96"
         inkscape:export-ydpi="96" />
    </g>
    <path
       class="cls-1"
       d="m 64.200926,15.666416 c -0.0033,-0.379222 -0.0191,-0.757687 -0.047,-1.131641 -0.274015,-2.38424 -1.592511,-4.345466 -3.378686,-5.025697 -0.193416,-0.068024 -0.386713,-0.1258649 -0.57989,-0.173519 -0.0016,-0.00212 -0.004,-0.00312 -0.0063,-0.00212 -4.429239,-1.1523953 -8.851395,1.506199 -11.090781,6.363261 -0.0013,0.0076 -0.0028,0.01519 -0.0047,0.02257 -0.02913,0.137763 -0.138811,0.219099 -0.245332,0.18192 -0.08691,-0.03041 -0.147177,-0.132652 -0.146899,-0.249209 -7.94e-4,-0.04642 0.0087,-0.09216 0.02761,-0.131611 L 51.623447,1.0824747 c 0.08646,-0.40888969 -0.09899,-0.83124669 -0.414586,-0.944237 l -8.410355,0.0152135 c -0.34316,-0.12592051 -0.591222,0.42133571 -0.338971,0.74780508 0.0109,0.0125942 0.02291,0.0255852 0.03351,0.0396372 0,0 0.0037,0.001323 0.0044,0.001588 4.104556,0.30760192 4.483754,5.12744232 3.841047,8.18254632 l -1.487853,7.6603432 c -0.240308,1.237229 -0.628983,2.454637 -0.731819,3.73267 -0.231926,2.880543 2.363499,5.585637 4.086161,6.965689 0.03104,0.02484 0.06127,0.04785 0.09214,0.07161 0.341767,0.263843 0.695272,0.501325 1.058666,0.711208 l 0.05047,0.0291 c 0.489016,0.280611 0.993865,0.512484 1.510144,0.6936 5.609209,1.972802 11.391802,-2.312719 12.915783,-9.575798 0.256733,-1.220735 0.380823,-2.481832 0.368694,-3.746913 z m -11.42996,5.088112 c -1.196559,2.638237 -2.691379,4.377794 -3.338647,3.885549 -0.647269,-0.492241 -0.203999,-3.028185 0.993333,-5.668213 1.197335,-2.640029 2.691379,-4.377796 3.339018,-3.88542 0.647639,0.492371 0.202485,3.029715 -0.993704,5.668084 z"
       id="path24"
       style="fill:#ffffff;fill-opacity:1;stroke-width:0.0437441;stroke:none"
       inkscape:export-filename="C:\Users\Olmos\OneDrive\Escritorio\blapoo fin.png"
       inkscape:export-xdpi="96"
       inkscape:export-ydpi="96"
       sodipodi:nodetypes="cccccccccccccccccscccccccccsssc" />
    <path
       style="fill:#ffffff;stroke:none;stroke-width:0.264583px;stroke-linecap:butt;stroke-linejoin:miter;stroke-opacity:1"
       d="M 69.172267,0.17481983 C 68.421631,4.5118247 72.508425,4.3867191 72.508425,4.3867191 L 69.422478,22.026651 c 0,0 -1.042548,6.338699 3.127648,7.381245 4.170198,1.042551 5.754872,-1.251058 5.754872,-1.251058 l -0.250211,-4.086791 c 0,0 -5.379556,3.169348 -4.712324,-1.876587 0.667231,-5.04594 3.919985,-22.06034115 3.919985,-22.06034115 z"
       id="path947" />
    <path
       id="path982"
       style="fill:#ffffff;stroke:none;stroke-width:0.999999px;stroke-linecap:butt;stroke-linejoin:miter;stroke-opacity:1"
       d="M 344.64844 32.878906 C 338.11916 32.897377 330.75268 34.833533 323.89648 40.980469 C 305.6133 57.372291 308.76563 85.900391 308.76562 85.900391 C 308.76562 85.900391 308.13389 105.28644 322.00391 110.33008 C 335.87391 115.37372 342.81055 103.55273 342.81055 103.55273 L 345.01562 110.17188 L 358.25586 107.49219 C 358.25586 107.49219 354.47288 92.676638 355.57617 87.160156 C 356.67947 81.643675 364.08789 38.142578 364.08789 38.142578 C 364.08789 38.142578 358.61013 34.75378 350.84766 33.414062 C 348.90704 33.079133 346.82486 32.872749 344.64844 32.878906 z M 342.82617 59.078125 A 6.7631917 17.383499 18.123637 0 1 344.14844 59.294922 A 6.7631917 17.383499 18.123637 0 1 344.71484 78.457031 A 6.7631917 17.383499 18.123637 0 1 332.84961 92.152344 A 6.7631917 17.383499 18.123637 0 1 332.2832 72.990234 A 6.7631917 17.383499 18.123637 0 1 342.82617 59.078125 z "
       transform="matrix(0.26458333,0,0,0.26458333,0.11380686,0)" />
    <path
       id="path1017"
       style="fill:#ffffff;stroke:none;stroke-width:0.999999px;stroke-linecap:butt;stroke-linejoin:miter;stroke-opacity:1"
       d="M 406.84766 32.960938 C 396.07929 33.078181 385.20703 37.984375 385.20703 37.984375 L 367.24023 135.39062 L 382.05664 135.23242 C 382.05664 135.23242 380.79506 106.70378 387.09961 110.01367 C 393.40416 113.32356 410.89999 109.69832 420.19922 95.355469 C 429.49841 81.012619 428.55273 57.212891 428.55273 57.212891 C 428.55273 57.212891 428.23606 38.456742 415.62695 34.201172 C 412.86871 33.270266 409.8628 32.928109 406.84766 32.960938 z M 477.27344 33.611328 C 474.3759 33.612482 451.01208 34.739424 445.10156 70.498047 C 438.79701 108.64057 459.28711 112.42383 459.28711 112.42383 C 459.28711 112.42383 487.94687 117.72014 495.53711 77.433594 C 503.73301 33.932203 477.57031 33.615234 477.57031 33.615234 C 477.57031 33.615234 477.46661 33.611251 477.27344 33.611328 z M 544.85742 33.611328 C 541.95988 33.612483 518.59411 34.739427 512.68359 70.498047 C 506.37904 108.64056 526.86914 112.42383 526.86914 112.42383 C 526.86914 112.42383 555.52894 117.72014 563.11914 77.433594 C 571.31505 33.932203 545.15234 33.617187 545.15234 33.617188 C 545.15234 33.617188 545.05059 33.611251 544.85742 33.611328 z M 475.61523 59.367188 A 6.7631917 17.383499 18.123637 0 1 476.93555 59.585938 A 6.7631917 17.383499 18.123637 0 1 477.50391 78.748047 A 6.7631917 17.383499 18.123637 0 1 465.63672 92.443359 A 6.7631917 17.383499 18.123637 0 1 465.07031 73.28125 A 6.7631917 17.383499 18.123637 0 1 475.61523 59.367188 z M 544.48438 59.367188 A 6.7631917 17.383499 18.123637 0 1 545.80469 59.585938 A 6.7631917 17.383499 18.123637 0 1 546.37305 78.748047 A 6.7631917 17.383499 18.123637 0 1 534.50781 92.443359 A 6.7631917 17.383499 18.123637 0 1 533.93945 73.28125 A 6.7631917 17.383499 18.123637 0 1 544.48438 59.367188 z M 399.30273 59.824219 A 6.7631917 17.383499 18.123637 0 1 400.625 60.041016 A 6.7631917 17.383499 18.123637 0 1 401.19141 79.203125 A 6.7631917 17.383499 18.123637 0 1 389.32617 92.898438 A 6.7631917 17.383499 18.123637 0 1 388.75977 73.736328 A 6.7631917 17.383499 18.123637 0 1 399.30273 59.824219 z "
       transform="matrix(0.26458333,0,0,0.26458333,0.11380686,0)" />
  </g>
</svg>
