<?xml version="1.0" encoding="UTF-8" standalone="no"?>
<svg
   viewBox="0 0 517.12296 135.222"
   version="1.1"
   id="svg27"
   sodipodi:docname="blapoo_text.svg"
   inkscape:version="1.1.2 (b8e25be833, 2022-02-05)"
   width="517.12299"
   height="135.222"
   xmlns:inkscape="http://www.inkscape.org/namespaces/inkscape"
   xmlns:sodipodi="http://sodipodi.sourceforge.net/DTD/sodipodi-0.dtd"
   xmlns:xlink="http://www.w3.org/1999/xlink"
   xmlns="http://www.w3.org/2000/svg"
   xmlns:svg="http://www.w3.org/2000/svg">
  <sodipodi:namedview
     id="namedview29"
     pagecolor="#ffffff"
     bordercolor="#666666"
     borderopacity="1.0"
     inkscape:pageshadow="2"
     inkscape:pageopacity="0.0"
     inkscape:pagecheckerboard="0"
     showgrid="false"
     inkscape:zoom="2"
     inkscape:cx="241.75"
     inkscape:cy="192"
     inkscape:window-width="1920"
     inkscape:window-height="1017"
     inkscape:window-x="-8"
     inkscape:window-y="-8"
     inkscape:window-maximized="1"
     inkscape:current-layer="svg27"
     width="517.123px"
     height="1e-05px" />
  <defs
     id="defs22">
    <linearGradient
       inkscape:collect="always"
       id="linearGradient9662">
      <stop
         style="stop-color:#ff2a7f;stop-opacity:1"
         offset="0"
         id="stop9658" />
      <stop
         style="stop-color:#ff9955;stop-opacity:1"
         offset="1"
         id="stop9660" />
    </linearGradient>
    <linearGradient
       inkscape:collect="always"
       id="linearGradient8968">
      <stop
         style="stop-color:#ff0066;stop-opacity:1"
         offset="0"
         id="stop8964" />
      <stop
         style="stop-color:#ffb380;stop-opacity:1"
         offset="1"
         id="stop8966" />
    </linearGradient>
    <rect
       x="566.69305"
       y="1.6237624"
       width="959.64355"
       height="633.26733"
       id="rect2973" />
    <style
       id="style20">.cls-1{fill:#d8d2cb;}</style>
    <linearGradient
       inkscape:collect="always"
       xlink:href="#linearGradient9662"
       id="linearGradient9664"
       x1="611.13654"
       y1="44.644836"
       x2="611.13654"
       y2="6.5539775"
       gradientUnits="userSpaceOnUse" />
    <linearGradient
       inkscape:collect="always"
       xlink:href="#linearGradient8968"
       id="linearGradient10993"
       gradientUnits="userSpaceOnUse"
       x1="687.09351"
       y1="679.87152"
       x2="696.46124"
       y2="162.56923"
       gradientTransform="matrix(0.83060482,0.29213035,-0.22563943,1.0753655,-161.10858,-315.90275)" />
    <linearGradient
       inkscape:collect="always"
       id="linearGradient8685">
      <stop
         style="stop-color:#ffd5d5;stop-opacity:1;"
         offset="0"
         id="stop8681" />
      <stop
         style="stop-color:#ffd5d5;stop-opacity:0;"
         offset="1"
         id="stop8683" />
    </linearGradient>
    <linearGradient
       inkscape:collect="always"
       id="linearGradient7039">
      <stop
         style="stop-color:#cc0066;stop-opacity:1;"
         offset="0"
         id="stop7035" />
      <stop
         style="stop-color:#cc0066;stop-opacity:0;"
         offset="1"
         id="stop7037" />
    </linearGradient>
    <linearGradient
       inkscape:collect="always"
       id="linearGradient6297">
      <stop
         style="stop-color:#ff5050;stop-opacity:1;"
         offset="0"
         id="stop6293" />
      <stop
         style="stop-color:#ff5050;stop-opacity:0;"
         offset="1"
         id="stop6295" />
    </linearGradient>
    <inkscape:perspective
       sodipodi:type="inkscape:persp3d"
       inkscape:vp_x="0 : -520.55161 : 1"
       inkscape:vp_y="0 : 1.5243902 : 0"
       inkscape:vp_z="0.37133307 : -520.55161 : 1"
       inkscape:persp3d-origin="0.18566653 : -520.62707 : 1"
       id="perspective91" />
    <linearGradient
       inkscape:collect="always"
       xlink:href="#linearGradient6297"
       id="linearGradient6299"
       x1="203.0144"
       y1="514.16522"
       x2="883.99127"
       y2="-495.28049"
       gradientUnits="userSpaceOnUse" />
    <linearGradient
       inkscape:collect="always"
       xlink:href="#linearGradient7039"
       id="linearGradient6611"
       x1="149.00558"
       y1="462.29941"
       x2="439.37546"
       y2="133.72296"
       gradientUnits="userSpaceOnUse" />
    <linearGradient
       inkscape:collect="always"
       xlink:href="#linearGradient7039"
       id="linearGradient7041"
       x1="237.17363"
       y1="445.15652"
       x2="50.829445"
       y2="233.11011"
       gradientUnits="userSpaceOnUse" />
    <linearGradient
       inkscape:collect="always"
       xlink:href="#linearGradient8685"
       id="linearGradient8687"
       x1="248.64433"
       y1="489.54614"
       x2="729.02466"
       y2="-435.66132"
       gradientUnits="userSpaceOnUse" />
    <linearGradient
       inkscape:collect="always"
       xlink:href="#linearGradient8968"
       id="linearGradient12836"
       gradientUnits="userSpaceOnUse"
       x1="162"
       y1="564"
       x2="892"
       y2="-4.0000005" />
  </defs>
  <g
     id="g333"
     transform="translate(-46.402,-74.578818)"
     inkscape:export-filename="C:\Users\Olmos\g333.webp"
     inkscape:export-xdpi="96"
     inkscape:export-ydpi="96">
    <g
       inkscape:label="Capa 1"
       id="layer1"
       transform="matrix(1.0245663,0,0,1.013055,45.006982,72.42902)"
       style="fill:url(#linearGradient12836);fill-opacity:1"
       inkscape:export-filename="C:\Users\Olmos\OneDrive\Escritorio\blapoo 2.png"
       inkscape:export-xdpi="96"
       inkscape:export-ydpi="96">
      <path
         sodipodi:type="star"
         style="fill:#ff00ff;fill-opacity:1;stroke:none"
         id="path507-9"
         inkscape:flatsided="true"
         sodipodi:sides="3"
         sodipodi:cx="203.13496"
         sodipodi:cy="402.54935"
         sodipodi:r1="101.88515"
         sodipodi:r2="50.942577"
         sodipodi:arg1="-0.10626486"
         sodipodi:arg2="0.94093269"
         inkscape:rounded="0.18"
         inkscape:randomized="0"
         transform="matrix(0.26458333,0,0,0.26458333,-27.050725,-81.647482)"
         inkscape:transform-center-x="-4.6389184"
         inkscape:transform-center-y="1.3118108"
         inkscape:export-filename="C:\Users\Olmos\OneDrive\Escritorio\path507-9.png"
         inkscape:export-xdpi="96"
         inkscape:export-ydpi="96"
         d="m 304.4454,391.7429 c 3.36911,31.58547 -113.56862,116.82207 -142.607,103.94708 -29.03837,-12.87499 -44.38657,-156.76435 -18.71731,-175.47482 25.66926,-18.71047 157.95519,39.94227 161.32431,71.52774 z" />
      <path
         sodipodi:type="star"
         style="fill:#ff00ff;fill-opacity:1;stroke:none"
         id="path507-7-1"
         inkscape:flatsided="true"
         sodipodi:sides="3"
         sodipodi:cx="203.13496"
         sodipodi:cy="402.54935"
         sodipodi:r1="101.88515"
         sodipodi:r2="50.942577"
         sodipodi:arg1="-0.10626486"
         sodipodi:arg2="0.94093269"
         inkscape:rounded="0.18"
         inkscape:randomized="0"
         transform="matrix(-0.26445952,0,0,0.26458333,167.96156,-81.647058)"
         inkscape:transform-center-x="4.6367432"
         inkscape:transform-center-y="1.3118108"
         inkscape:export-filename="C:\Users\Olmos\OneDrive\Escritorio\path507-9.png"
         inkscape:export-xdpi="96"
         inkscape:export-ydpi="96"
         d="m 304.4454,391.7429 c 3.36911,31.58547 -113.56862,116.82207 -142.607,103.94708 -29.03837,-12.87499 -44.38657,-156.76435 -18.71731,-175.47482 25.66926,-18.71047 157.95519,39.94227 161.32431,71.52774 z" />
      <path
         sodipodi:type="star"
         style="fill:url(#linearGradient6611);fill-opacity:1;stroke:none"
         id="path507"
         inkscape:flatsided="true"
         sodipodi:sides="3"
         sodipodi:cx="203.13496"
         sodipodi:cy="402.54935"
         sodipodi:r1="101.88515"
         sodipodi:r2="50.942577"
         sodipodi:arg1="-0.10626486"
         sodipodi:arg2="0.94093269"
         inkscape:rounded="0.18"
         inkscape:randomized="0"
         transform="matrix(0.26458333,0,0,0.26458333,-27.050725,-81.647482)"
         inkscape:transform-center-x="-4.6389184"
         inkscape:transform-center-y="1.3118108"
         inkscape:export-filename="C:\Users\Olmos\OneDrive\Escritorio\path507-9.png"
         inkscape:export-xdpi="96"
         inkscape:export-ydpi="96"
         d="m 304.4454,391.7429 c 3.36911,31.58547 -113.56862,116.82207 -142.607,103.94708 -29.03837,-12.87499 -44.38657,-156.76435 -18.71731,-175.47482 25.66926,-18.71047 157.95519,39.94227 161.32431,71.52774 z" />
      <path
         sodipodi:type="star"
         style="fill:url(#linearGradient7041);fill-opacity:1;stroke:none"
         id="path507-7"
         inkscape:flatsided="true"
         sodipodi:sides="3"
         sodipodi:cx="203.13496"
         sodipodi:cy="402.54935"
         sodipodi:r1="101.88515"
         sodipodi:r2="50.942577"
         sodipodi:arg1="-0.10626486"
         sodipodi:arg2="0.94093269"
         inkscape:rounded="0.18"
         inkscape:randomized="0"
         transform="matrix(-0.26445952,0,0,0.26458333,167.96156,-81.647058)"
         inkscape:transform-center-x="4.6367432"
         inkscape:transform-center-y="1.3118108"
         inkscape:export-filename="C:\Users\Olmos\OneDrive\Escritorio\path507-9.png"
         inkscape:export-xdpi="96"
         inkscape:export-ydpi="96"
         d="m 304.4454,391.7429 c 3.36911,31.58547 -113.56862,116.82207 -142.607,103.94708 -29.03837,-12.87499 -44.38657,-156.76435 -18.71731,-175.47482 25.66926,-18.71047 157.95519,39.94227 161.32431,71.52774 z" />
      <path
         sodipodi:type="star"
         style="opacity:1;fill:#f9f9f9;fill-opacity:1;stroke:none"
         id="path399-3"
         inkscape:flatsided="true"
         sodipodi:sides="5"
         sodipodi:cx="314.73776"
         sodipodi:cy="389.0321"
         sodipodi:r1="207.21996"
         sodipodi:r2="167.64447"
         sodipodi:arg1="-2.22212"
         sodipodi:arg2="-1.5938015"
         inkscape:rounded="0.11"
         inkscape:randomized="0"
         transform="matrix(0.34715294,0.00659019,-0.00564973,0.2976123,-37.149952,-43.939711)"
         inkscape:transform-center-x="-0.13431613"
         inkscape:transform-center-y="4.132206"
         inkscape:export-filename="C:\Users\Olmos\OneDrive\Escritorio\path507-9.png"
         inkscape:export-xdpi="96"
         inkscape:export-ydpi="96"
         d="m 189.11281,224.2338 c 21.31053,-16.24491 221.50207,-20.85116 243.53721,-5.6036 22.03514,15.24756 88.27853,204.21763 80.58648,229.88604 -7.69206,25.66842 -166.94294,147.06459 -193.73203,147.68099 -26.7891,0.61639 -191.45494,-113.32671 -200.31946,-138.61418 -8.86451,-25.28746 48.61728,-217.10434 69.9278,-233.34925 z" />
      <path
         sodipodi:type="star"
         style="opacity:1;fill:url(#linearGradient6299);fill-opacity:1;stroke:none"
         id="path399"
         inkscape:flatsided="true"
         sodipodi:sides="5"
         sodipodi:cx="314.73776"
         sodipodi:cy="389.0321"
         sodipodi:r1="207.21996"
         sodipodi:r2="167.64447"
         sodipodi:arg1="-2.22212"
         sodipodi:arg2="-1.5938015"
         inkscape:rounded="0.11"
         inkscape:randomized="0"
         transform="matrix(0.34715294,0.00659019,-0.00564973,0.2976123,-37.149952,-43.939711)"
         inkscape:transform-center-x="-0.13431613"
         inkscape:transform-center-y="4.132206"
         inkscape:export-filename="C:\Users\Olmos\OneDrive\Escritorio\path507-9.png"
         inkscape:export-xdpi="96"
         inkscape:export-ydpi="96"
         d="m 189.11281,224.2338 c 21.31053,-16.24491 221.50207,-20.85116 243.53721,-5.6036 22.03514,15.24756 88.27853,204.21763 80.58648,229.88604 -7.69206,25.66842 -166.94294,147.06459 -193.73203,147.68099 -26.7891,0.61639 -191.45494,-113.32671 -200.31946,-138.61418 -8.86451,-25.28746 48.61728,-217.10434 69.9278,-233.34925 z" />
      <path
         sodipodi:type="star"
         style="opacity:1;fill:url(#linearGradient8687);fill-opacity:1;stroke:none"
         id="path399-6"
         inkscape:flatsided="true"
         sodipodi:sides="5"
         sodipodi:cx="314.73776"
         sodipodi:cy="389.0321"
         sodipodi:r1="207.21996"
         sodipodi:r2="167.64447"
         sodipodi:arg1="-2.22212"
         sodipodi:arg2="-1.5938015"
         inkscape:rounded="0.11"
         inkscape:randomized="0"
         transform="matrix(0.21857933,0.00342674,-0.00355727,0.15475105,2.501711,42.244508)"
         inkscape:transform-center-x="-0.084569757"
         inkscape:transform-center-y="2.1486494"
         inkscape:export-filename="C:\Users\Olmos\OneDrive\Escritorio\path507-9.png"
         inkscape:export-xdpi="96"
         inkscape:export-ydpi="96"
         d="m 189.11281,224.2338 c 21.31053,-16.24491 221.50207,-20.85116 243.53721,-5.6036 22.03514,15.24756 88.27853,204.21763 80.58648,229.88604 -7.69206,25.66842 -166.94294,147.06459 -193.73203,147.68099 -26.7891,0.61639 -191.45494,-113.32671 -200.31946,-138.61418 -8.86451,-25.28746 48.61728,-217.10434 69.9278,-233.34925 z" />
      <path
         sodipodi:type="star"
         style="fill:#280b0b;stroke:none;stroke-width:1.00157;stroke-miterlimit:4;stroke-dasharray:none;stroke-opacity:1"
         id="path4336"
         inkscape:flatsided="true"
         sodipodi:sides="3"
         sodipodi:cx="315.41318"
         sodipodi:cy="557.20746"
         sodipodi:r1="33.770149"
         sodipodi:r2="16.885075"
         sodipodi:arg1="1.5707963"
         sodipodi:arg2="2.6179939"
         inkscape:rounded="0.11"
         inkscape:randomized="0"
         transform="matrix(0.26458333,0,0,0.26458333,-13.288788,-67.335069)"
         inkscape:transform-center-x="1.0513773e-06"
         inkscape:transform-center-y="1.6808984"
         inkscape:export-filename="C:\Users\Olmos\OneDrive\Escritorio\path507-9.png"
         inkscape:export-xdpi="96"
         inkscape:export-ydpi="96"
         d="m 315.41318,590.97761 c -6.43408,0 -32.46285,-45.08315 -29.24581,-50.65523 3.21704,-5.57207 55.27458,-5.57207 58.49161,0 3.21704,5.57208 -22.81172,50.65523 -29.2458,50.65523 z" />
      <path
         style="fill:#000000;fill-opacity:1;stroke:none;stroke-width:0.302655px;stroke-linecap:butt;stroke-linejoin:miter;stroke-opacity:1"
         d="m 37.623074,64.039928 c 0,0 5.38676,-5.64709 9.323249,-5.04204 3.93649,0.60504 4.350856,1.81514 4.765222,3.42859 0.414366,1.61345 -8.494517,6.6555 -11.187908,5.84877 -2.69338,-0.80672 -3.522124,-1.61345 -2.900563,-4.23532 z"
         id="path4473"
         inkscape:export-filename="C:\Users\Olmos\OneDrive\Escritorio\path507-9.png"
         inkscape:export-xdpi="96"
         inkscape:export-ydpi="96" />
      <path
         style="fill:#000000;fill-opacity:1;stroke:none;stroke-width:0.301793px;stroke-linecap:butt;stroke-linejoin:miter;stroke-opacity:1"
         d="m 100.66014,64.039928 c 0,0 -5.356132,-5.64709 -9.270242,-5.04204 -3.91411,0.60504 -4.32612,1.81514 -4.73813,3.42859 -0.41202,1.61345 8.44623,6.6555 11.1243,5.84877 2.678072,-0.80672 3.502102,-1.61345 2.884072,-4.23532 z"
         id="path4473-0"
         inkscape:export-filename="C:\Users\Olmos\OneDrive\Escritorio\path507-9.png"
         inkscape:export-xdpi="96"
         inkscape:export-ydpi="96" />
      <path
         style="fill:#ffd5d5;stroke:none;stroke-width:0.264583px;stroke-linecap:butt;stroke-linejoin:miter;stroke-opacity:1"
         d="m 99.198598,39.006708 c 0,0 -9.51544,-2.56887 -11.05732,1.20316 -1.54186,3.77204 -0.96112,5.49943 1.21526,7.13405 2.17637,1.63462 23.666602,6.38923 23.995942,5.1693 0.32935,-1.21993 -8.44945,-10.39589 -14.153882,-13.50651 z"
         id="path5162"
         sodipodi:nodetypes="csssc"
         inkscape:export-filename="C:\Users\Olmos\OneDrive\Escritorio\path507-9.png"
         inkscape:export-xdpi="96"
         inkscape:export-ydpi="96" />
      <path
         style="fill:#ffd5d5;stroke:none;stroke-width:0.264583px;stroke-linecap:butt;stroke-linejoin:miter;stroke-opacity:1"
         d="m 41.650232,38.417228 c 0,0 9.51544,-1.4627 11.05732,2.48857 1.54186,3.95128 0.96112,5.61116 -1.21526,6.99277 -2.17637,1.38162 -23.6666,3.638 -23.99594,2.37978 -0.329348,-1.25821 8.44945,-9.41364 14.15388,-11.86112 z"
         id="path5162-4"
         sodipodi:nodetypes="csssc"
         inkscape:export-filename="C:\Users\Olmos\OneDrive\Escritorio\path507-9.png"
         inkscape:export-xdpi="96"
         inkscape:export-ydpi="96" />
      <path
         style="fill:#ff7f2a;stroke:none;stroke-width:0.50349px;stroke-linecap:butt;stroke-linejoin:miter;stroke-opacity:1"
         d="m 70.099311,111.17826 c -49.877256,14.76879 -65.772205,3.37571 -49.877256,14.76879 15.89495,11.39311 49.877256,-14.76879 49.877256,-14.76879 z"
         id="path8866"
         inkscape:export-filename="C:\Users\Olmos\OneDrive\Escritorio\path507-9.png"
         inkscape:export-xdpi="96"
         inkscape:export-ydpi="96" />
    </g>
    <g
       id="g13087"
       transform="matrix(0.16881911,0,0,0.16881911,180.44072,74.61209)"
       inkscape:export-filename="C:\Users\Olmos\OneDrive\Escritorio\blapoo 2.png"
       inkscape:export-xdpi="96"
       inkscape:export-ydpi="96">
      <path
         class="cls-1"
         d="m 551.02493,347.52451 c -0.0737,-8.49006 -0.4275,-16.96315 -1.05219,-25.33522 -6.13466,-53.37849 -35.65319,-97.28645 -75.64213,-112.51547 -4.33022,-1.52297 -8.65775,-2.8179 -12.98259,-3.88478 -0.0358,-0.0503 -0.0907,-0.0696 -0.14121,-0.0497 -99.16194,-25.79988 -198.16534,33.72084 -248.30075,142.4609 -0.027,0.17121 -0.0625,0.34003 -0.10605,0.50542 -0.65206,3.08426 -3.10772,4.90521 -5.49247,4.07283 -1.94573,-0.68083 -3.29503,-2.96984 -3.28883,-5.5793 -0.0199,-1.03916 0.19497,-2.06323 0.61826,-2.94651 L 269.43996,21.016516 c 1.93563,-9.154288 -2.2161,-18.6100171 -9.2818,-21.1396231 L 71.86685,0.21760936 C 64.18422,-2.6015156 58.63055,9.6504824 64.27799,16.959469 c 0.24404,0.28214 0.51301,0.57304 0.75029,0.88744 0,0 0.0831,0.0292 0.0997,0.0351 91.89292,6.886592 100.38244,114.793341 85.99345,183.191061 l -33.31027,171.50008 c -5.37997,27.69912 -14.0817,54.95447 -16.38398,83.56713 -5.192322,64.48967 52.91414,125.05139 91.48114,155.94813 0.69493,0.55619 1.37171,1.07134 2.06284,1.60311 7.65152,5.90693 15.5658,11.2237 23.7015,15.92254 l 1.12981,0.65141 c 10.94812,6.28235 22.25068,11.47354 33.80917,15.52834 125.57915,44.16718 255.04002,-51.77727 289.15896,-214.38331 5.74773,-27.32985 8.52589,-55.56334 8.25433,-83.88599 z M 295.13064,461.43729 c -26.78863,59.06495 -60.25467,98.01019 -74.74574,86.98982 -14.49107,-11.02035 -4.56718,-67.79514 22.23878,-126.90018 26.80597,-59.10504 60.25467,-98.01019 74.75404,-86.9869 14.49937,11.02327 4.53325,67.82939 -22.24708,126.89726 z"
         id="path24"
         style="fill:url(#linearGradient10993);fill-opacity:1;stroke-width:0.979347"
         inkscape:export-filename="C:\Users\Olmos\OneDrive\Escritorio\blapoo fin.png"
         inkscape:export-xdpi="96"
         inkscape:export-ydpi="96"
         sodipodi:nodetypes="cccccccccccccccccscccccccccsssc" />
      <text
         xml:space="preserve"
         id="text2971"
         style="font-style:italic;font-variant:normal;font-weight:bold;font-stretch:normal;font-size:40px;line-height:1.25;font-family:'Ubuntu Mono';-inkscape-font-specification:'Ubuntu Mono, Bold Italic';font-variant-ligatures:normal;font-variant-caps:normal;font-variant-numeric:normal;font-variant-east-asian:normal;white-space:pre;shape-inside:url(#rect2973);fill:url(#linearGradient9664);fill-opacity:1;stroke:none"
         transform="matrix(17.831279,0,0,23.470198,-9622.3638,-267.82331)"
         inkscape:export-filename="C:\Users\Olmos\OneDrive\Escritorio\blapoo fin.png"
         inkscape:export-xdpi="96"
         inkscape:export-ydpi="96"><tspan
           x="566.69336"
           y="38.930739"
           id="tspan501">lapoo</tspan></text>
    </g>
  </g>
</svg>
